<?xml version="1.0" encoding="UTF-8"?>
<svg width="22px" height="26px" viewBox="0 0 22 26" version="1.1" xmlns="http://www.w3.org/2000/svg" xmlns:xlink="http://www.w3.org/1999/xlink">
    <!-- Generator: Sketch 51.2 (57519) - http://www.bohemiancoding.com/sketch -->
    <title>ic_cat_festa_show_no_selected_solo</title>
    <desc>Created with Sketch.</desc>
    <defs></defs>
    <g id="Symbols" stroke="none" stroke-width="1" fill="none" fill-rule="evenodd">
        <g id="ic_cat_festa_show_no_selected" transform="translate(-19.000000, -17.000000)" fill="#0083FF" fill-rule="nonzero">
            <g id="Group">
                <g id="ic_cat_festa_show_no_selected_solo" transform="translate(19.000000, 17.000000)">
                    <path d="M6.56271186,9.50278342 L6.56271186,22.3692546 L6.56024221,22.3692546 C6.49275356,24.1219405 5.05056912,25.522117 3.28135593,25.522117 C1.46911309,25.522117 0,24.0530039 0,22.240761 C0,20.4285182 1.46911309,18.9594051 3.28135593,18.9594051 C4.12177073,18.9594051 4.8883929,19.2753489 5.46892655,19.7949406 L5.46892655,9.07648642 C5.46876762,9.06888711 5.46876846,9.06130825 5.46892655,9.05375376 L5.46892655,6.58119106 C5.46892655,4.17399556 7.17719051,2.10543267 9.54096712,1.650295 L17.7777778,0.064323283 C19.6921478,-0.30428257 21.5428654,0.948806838 21.9114712,2.86317681 C21.9538218,3.08312619 21.9751412,3.30660725 21.9751412,3.53059675 L21.9751412,19.4341491 L20.8813559,19.4341491 L20.8813559,3.53059675 C20.8813559,3.37601245 20.8666425,3.22177904 20.8374146,3.06998299 C20.5830247,1.74879808 19.3057689,0.883989896 17.984584,1.13837985 L9.7477733,2.72435157 C7.89887872,3.08035034 6.56271186,4.69833517 6.56271186,6.58119106 L6.56271186,8.38145589 L16.5425596,6.1277914 C16.8371814,6.06125947 17.1299542,6.24616278 17.1964861,6.54078448 C17.2630181,6.83540619 17.0781148,7.12817906 16.7834931,7.19471098 L6.56271186,9.50278342 Z M3.28135593,24.4283317 C4.48951783,24.4283317 5.46892655,23.4489229 5.46892655,22.240761 C5.46892655,21.0325991 4.48951783,20.0531904 3.28135593,20.0531904 C2.07319404,20.0531904 1.09378531,21.0325991 1.09378531,22.240761 C1.09378531,23.4489229 2.07319404,24.4283317 3.28135593,24.4283317 Z M18.5556614,6.47795841 C18.3460824,6.26837946 18.3421613,5.93102112 18.5438979,5.71666075 C18.5469842,5.71324734 18.5494594,5.71068719 18.563797,5.69585744 C18.7773718,5.48228257 19.1236451,5.48228257 19.33722,5.69585744 C19.5467989,5.9054364 19.5507201,6.24279473 19.3489834,6.4571551 C19.3458972,6.46056851 19.343422,6.46312866 19.3290844,6.47795841 C19.1155095,6.69153328 18.7692362,6.69153328 18.5556614,6.47795841 Z M18.6937853,22.5639249 C16.8678134,22.5639249 15.3875706,21.0836821 15.3875706,19.2577102 C15.3875706,17.4317382 16.8678134,15.9514955 18.6937853,15.9514955 C20.5197573,15.9514955 22,17.4317382 22,19.2577102 C22,21.0836821 20.5197573,22.5639249 18.6937853,22.5639249 Z M18.6937853,21.4204221 C19.8882181,21.4204221 20.8564972,20.452143 20.8564972,19.2577102 C20.8564972,18.0632774 19.8882181,17.0949983 18.6937853,17.0949983 C17.4993525,17.0949983 16.5310734,18.0632774 16.5310734,19.2577102 C16.5310734,20.452143 17.4993525,21.4204221 18.6937853,21.4204221 Z"></path>
                </g>
            </g>
        </g>
    </g>
</svg>